<svg version="1.1" id="Layer_1" xmlns="http://www.w3.org/2000/svg" xmlns:xlink="http://www.w3.org/1999/xlink" x="0px" y="0px"
	 width="100%" viewBox="0 0 225 225" enable-background="new 0 0 225 225" xml:space="preserve">
<path fill="#000000" opacity="1.000000" stroke="none" 
	d="
M123.000000,226.000000 
	C82.000000,226.000000 41.500004,226.000000 1.000005,226.000000 
	C1.000004,151.000000 1.000004,76.000015 1.000002,1.000015 
	C75.999992,1.000010 150.999985,1.000010 225.999969,1.000005 
	C225.999985,75.999985 225.999985,150.999969 226.000000,225.999969 
	C191.833328,226.000000 157.666672,226.000000 123.000000,226.000000 
M109.717010,113.801727 
	C109.513420,113.652878 109.309837,113.504028 109.525635,112.737549 
	C112.106224,106.456963 111.468872,105.128975 105.034927,103.875008 
	C105.283699,103.098061 105.744637,102.344208 105.718361,101.607735 
	C105.648811,99.658638 105.368393,97.717072 105.171890,95.772514 
	C103.356651,96.126930 101.216003,95.989899 99.790886,96.933502 
	C96.350060,99.211769 93.151093,101.888641 90.028519,104.604729 
	C86.990723,107.247063 83.554131,109.954399 87.876450,114.398659 
	C88.311409,114.845879 87.911156,116.287132 87.649147,117.195114 
	C86.962303,119.575310 86.013863,121.883492 85.390007,124.277786 
	C83.184624,132.741791 88.855141,139.207840 97.346840,137.302414 
	C101.771835,136.309494 105.850418,133.772736 110.333328,131.825668 
	C114.313728,137.165482 120.104370,139.192673 127.360367,137.183105 
	C135.134369,135.030060 140.041687,129.943787 141.755539,122.269333 
	C144.623276,109.427719 134.530914,100.385696 122.171646,105.118263 
	C117.701317,106.830017 114.229927,111.150558 109.717010,113.801727 
M200.203979,123.330109 
	C200.071884,123.149414 199.939804,122.968712 200.154602,122.200287 
	C205.571426,118.336685 207.267136,114.682999 205.759033,110.124603 
	C204.415878,106.064758 199.560623,102.892387 193.896362,103.962830 
	C188.279358,105.024338 182.944092,107.576653 178.270126,109.202171 
	C175.946487,107.612617 173.448624,104.591797 170.741913,104.391342 
	C167.510559,104.152023 164.100357,106.327560 160.666809,107.491196 
	C156.880386,102.231163 151.100113,102.700157 143.972168,108.835457 
	C146.386200,118.833771 140.843033,127.496552 140.401886,136.882782 
	C145.071304,136.882782 149.882019,136.882782 154.827148,136.882782 
	C157.309814,130.406448 156.207779,122.513695 162.436829,117.318069 
	C164.971146,122.035362 168.810608,121.433701 172.992447,120.134308 
	C172.992447,121.349152 172.984253,122.335052 172.993713,123.320778 
	C173.083923,132.707870 178.565964,138.079193 187.952225,138.010651 
	C194.703995,137.961349 200.157181,134.913315 204.593185,130.193726 
	C205.951645,128.748413 206.085846,126.152405 206.780670,124.083344 
	C204.705582,124.023003 202.630478,123.962662 200.203979,123.330109 
M41.224339,81.136681 
	C38.085201,81.100426 34.877209,80.630791 31.820980,81.116379 
	C25.051367,82.191948 20.051886,88.066711 19.894886,94.475647 
	C19.720581,101.590981 23.560329,106.228531 31.021805,108.207863 
	C37.065643,109.811127 42.503448,108.609581 47.348408,105.175331 
	C48.580990,107.441505 49.777355,109.641106 51.169880,112.201347 
	C49.076897,111.985481 47.441978,111.751381 45.799072,111.658333 
	C36.979218,111.158844 28.877895,116.533722 27.018339,124.081024 
	C24.983582,132.339401 28.857710,139.801086 37.619904,143.648163 
	C45.834202,147.254700 54.600754,147.665146 62.957306,144.956924 
	C68.255211,143.239990 73.744751,140.323380 77.632751,136.430908 
	C85.043823,129.011322 83.346611,117.411491 74.895088,111.260048 
	C72.621399,109.605148 70.097198,108.298256 67.774200,106.705856 
	C66.312492,105.703857 65.011101,104.467979 63.263882,103.029106 
	C68.653206,103.731621 73.150368,104.832985 77.633766,104.779526 
	C84.093483,104.702499 88.927559,100.512650 89.539917,95.474518 
	C90.134995,90.578423 86.694626,85.947769 80.416229,83.998558 
	C72.017426,81.391037 64.065025,82.916832 56.624187,87.349876 
	C51.765232,85.356316 46.881935,83.352768 41.224339,81.136681 
z"/>
<path fill="#FBFBFB" opacity="1.000000" stroke="none" 
	d="
M41.611488,81.242950 
	C46.881935,83.352768 51.765232,85.356316 56.624187,87.349876 
	C64.065025,82.916832 72.017426,81.391037 80.416229,83.998558 
	C86.694626,85.947769 90.134995,90.578423 89.539917,95.474518 
	C88.927559,100.512650 84.093483,104.702499 77.633766,104.779526 
	C73.150368,104.832985 68.653206,103.731621 63.263882,103.029106 
	C65.011101,104.467979 66.312492,105.703857 67.774200,106.705856 
	C70.097198,108.298256 72.621399,109.605148 74.895088,111.260048 
	C83.346611,117.411491 85.043823,129.011322 77.632751,136.430908 
	C73.744751,140.323380 68.255211,143.239990 62.957306,144.956924 
	C54.600754,147.665146 45.834202,147.254700 37.619904,143.648163 
	C28.857710,139.801086 24.983582,132.339401 27.018339,124.081024 
	C28.877895,116.533722 36.979218,111.158844 45.799072,111.658333 
	C47.441978,111.751381 49.076897,111.985481 51.169880,112.201347 
	C49.777355,109.641106 48.580990,107.441505 47.348408,105.175331 
	C42.503448,108.609581 37.065643,109.811127 31.021805,108.207863 
	C23.560329,106.228531 19.720581,101.590981 19.894886,94.475647 
	C20.051886,88.066711 25.051367,82.191948 31.820980,81.116379 
	C34.877209,80.630791 38.085201,81.100426 41.611488,81.242950 
M58.044014,117.151329 
	C57.761787,117.268349 57.479565,117.385368 57.197338,117.502388 
	C57.447552,117.684196 57.697765,117.866005 57.877838,118.767143 
	C56.940708,119.816910 55.628021,120.725853 55.167351,121.954292 
	C54.661659,123.302788 54.941109,124.945709 54.878437,126.460350 
	C57.160526,126.404236 59.775681,126.976944 61.581024,126.020721 
	C62.454098,125.558289 62.209938,122.114349 61.698364,120.230316 
	C61.381184,119.062195 59.612850,118.288109 58.044014,117.151329 
M43.233391,100.118080 
	C44.575710,100.433868 45.918030,100.749664 47.357620,101.088341 
	C47.969292,98.924835 48.439552,97.261497 48.912350,95.589188 
	C42.499420,94.114876 41.505508,94.806320 43.233391,100.118080 
z"/>
<path fill="#FBFBFB" opacity="1.000000" stroke="none" 
	d="
M200.555389,123.902321 
	C202.630478,123.962662 204.705582,124.023003 206.780670,124.083344 
	C206.085846,126.152405 205.951645,128.748413 204.593185,130.193726 
	C200.157181,134.913315 194.703995,137.961349 187.952225,138.010651 
	C178.565964,138.079193 173.083923,132.707870 172.993713,123.320778 
	C172.984253,122.335052 172.992447,121.349152 172.992447,120.134308 
	C168.810608,121.433701 164.971146,122.035362 162.436829,117.318069 
	C156.207779,122.513695 157.309814,130.406448 154.827148,136.882782 
	C149.882019,136.882782 145.071304,136.882782 140.401886,136.882782 
	C140.843033,127.496552 146.386200,118.833771 143.972168,108.835457 
	C151.100113,102.700157 156.880386,102.231163 160.666809,107.491196 
	C164.100357,106.327560 167.510559,104.152023 170.741913,104.391342 
	C173.448624,104.591797 175.946487,107.612617 178.270126,109.202171 
	C182.944092,107.576653 188.279358,105.024338 193.896362,103.962830 
	C199.560623,102.892387 204.415878,106.064758 205.759033,110.124603 
	C207.267136,114.682999 205.571426,118.336685 199.607910,122.551201 
	C195.976532,123.929611 192.891876,124.957100 188.796722,126.321190 
	C194.067062,127.953423 197.431473,126.432663 200.555389,123.902321 
z"/>
<path fill="#F9F9F9" opacity="1.000000" stroke="none" 
	d="
M110.302704,114.280685 
	C114.229927,111.150558 117.701317,106.830017 122.171646,105.118263 
	C134.530914,100.385696 144.623276,109.427719 141.755539,122.269333 
	C140.041687,129.943787 135.134369,135.030060 127.360367,137.183105 
	C120.104370,139.192673 114.313728,137.165482 110.333328,131.825668 
	C105.850418,133.772736 101.771835,136.309494 97.346840,137.302414 
	C88.855141,139.207840 83.184624,132.741791 85.390007,124.277786 
	C86.013863,121.883492 86.962303,119.575310 87.649147,117.195114 
	C87.911156,116.287132 88.311409,114.845879 87.876450,114.398659 
	C83.554131,109.954399 86.990723,107.247063 90.028519,104.604729 
	C93.151093,101.888641 96.350060,99.211769 99.790886,96.933502 
	C101.216003,95.989899 103.356651,96.126930 105.171890,95.772507 
	C105.368393,97.717072 105.648811,99.658638 105.718361,101.607735 
	C105.744637,102.344208 105.283699,103.098061 105.034927,103.875008 
	C111.468872,105.128975 112.106224,106.456963 108.978699,113.233826 
	C103.470978,113.238838 101.405350,115.851868 101.178612,120.467728 
	C101.146370,121.124199 100.773781,121.835373 100.935577,122.416260 
	C101.383759,124.025291 101.932915,126.872971 102.617142,126.924889 
	C105.240250,127.123924 108.197510,127.231659 108.247093,122.862427 
	C108.279640,119.994438 109.573639,117.140762 110.302704,114.280685 
M125.049377,126.209457 
	C125.981819,121.698708 126.914261,117.187950 127.846703,112.677200 
	C127.111542,112.537186 126.376389,112.397171 125.641228,112.257156 
	C124.515808,117.480186 123.390396,122.703217 122.264984,127.926247 
	C122.708488,128.059036 123.151985,128.191818 123.595490,128.324615 
	C123.996704,127.857613 124.397919,127.390602 125.049377,126.209457 
z"/>
<path fill="#0A0A0A" opacity="1.000000" stroke="none" 
	d="
M58.495895,117.337151 
	C59.612850,118.288109 61.381184,119.062195 61.698364,120.230316 
	C62.209938,122.114349 62.454098,125.558289 61.581024,126.020721 
	C59.775681,126.976944 57.160526,126.404236 54.878437,126.460342 
	C54.941109,124.945709 54.661659,123.302788 55.167351,121.954292 
	C55.628021,120.725853 56.940708,119.816910 58.063927,118.240639 
	C58.250019,117.714134 58.495895,117.337151 58.495895,117.337151 
z"/>
<path fill="#0C0C0C" opacity="1.000000" stroke="none" 
	d="
M42.849525,99.958069 
	C41.505508,94.806320 42.499420,94.114876 48.912350,95.589188 
	C48.439552,97.261497 47.969292,98.924835 47.357620,101.088341 
	C45.918030,100.749664 44.575710,100.433868 42.849525,99.958069 
z"/>
<path fill="#0A0A0A" opacity="1.000000" stroke="none" 
	d="
M58.098999,117.880974 
	C57.697765,117.866005 57.447552,117.684196 57.197338,117.502388 
	C57.479565,117.385368 57.761787,117.268349 58.269955,117.244240 
	C58.495895,117.337151 58.250019,117.714134 58.098999,117.880974 
z"/>
<path fill="#000000" opacity="1.000000" stroke="none" 
	d="
M200.379684,123.616211 
	C197.431473,126.432663 194.067062,127.953423 188.796722,126.321190 
	C192.891876,124.957100 195.976532,123.929611 199.434448,122.845062 
	C199.939804,122.968712 200.071884,123.149414 200.379684,123.616211 
z"/>
<path fill="#000000" opacity="1.000000" stroke="none" 
	d="
M110.009857,114.041199 
	C109.573639,117.140762 108.279640,119.994438 108.247093,122.862427 
	C108.197510,127.231659 105.240250,127.123924 102.617142,126.924889 
	C101.932915,126.872971 101.383759,124.025291 100.935577,122.416260 
	C100.773781,121.835373 101.146370,121.124199 101.178612,120.467728 
	C101.405350,115.851868 103.470978,113.238838 108.768997,113.542648 
	C109.309837,113.504028 109.513420,113.652878 110.009857,114.041199 
z"/>
<path fill="#101010" opacity="1.000000" stroke="none" 
	d="
M124.924255,126.566528 
	C124.397919,127.390602 123.996704,127.857613 123.595490,128.324615 
	C123.151985,128.191818 122.708488,128.059036 122.264984,127.926247 
	C123.390396,122.703217 124.515808,117.480186 125.641228,112.257156 
	C126.376389,112.397171 127.111542,112.537186 127.846703,112.677200 
	C126.914261,117.187950 125.981819,121.698708 124.924255,126.566528 
z"/>
</svg>